<svg width="75" height="31" viewBox="0 0 75 31" fill="none" xmlns="http://www.w3.org/2000/svg">
<path fill-rule="evenodd" clip-rule="evenodd" d="M9.46452 29.9462V14.1095H15.2395V9.37478H9.46452V7.86458C9.46452 6.23192 10.5473 5.1707 12.1916 5.1707H15.2395V0.436005H11.4296C6.89787 0.436005 3.89008 3.25233 3.89008 7.53805V9.37478H0V14.1095H3.89008V29.9462H9.46452ZM25.2769 30.2727C31.493 30.2727 35.9445 25.7829 35.9445 19.6605C35.9445 13.538 31.493 9.04825 25.2769 9.04825C19.0608 9.04825 14.6093 13.538 14.6093 19.6605C14.6093 25.7829 19.0608 30.2727 25.2769 30.2727ZM20.2238 19.6605C20.2238 23.0483 22.2691 25.3748 25.2769 25.3748C28.2847 25.3748 30.33 23.0483 30.33 19.6605C30.33 16.2319 28.2847 13.9054 25.2769 13.9054C22.2691 13.9054 20.2238 16.2319 20.2238 19.6605ZM43.4554 29.9462V0.436005H37.881V29.9462H43.4554ZM46.4346 9.37478H52.0491V29.9462H46.4346V9.37478ZM64.3324 30.2727C70.5485 30.2727 75 25.7829 75 19.6605C75 13.538 70.5485 9.04825 64.3324 9.04825C58.1163 9.04825 53.6647 13.538 53.6647 19.6605C53.6647 25.7829 58.1163 30.2727 64.3324 30.2727ZM59.2793 19.6605C59.2793 23.0483 61.3246 25.3748 64.3324 25.3748C67.3402 25.3748 69.3855 23.0483 69.3855 19.6605C69.3855 16.2319 67.3402 13.9054 64.3324 13.9054C61.3246 13.9054 59.2793 16.2319 59.2793 19.6605Z" fill="black"/>
</svg>
